<svg width="58" height="58" viewBox="0 0 58 58" fill="none" xmlns="http://www.w3.org/2000/svg">
<circle cx="29" cy="29" r="29" fill="url(#paint0_radial_114_1573)" fill-opacity="0.6"/>
<path d="M22.35 15H17.9166C16.3052 15 15 16.3052 15 17.9166V22.35C15 22.8006 15.366 23.1666 15.8167 23.1666H17.1C17.5506 23.1666 17.9166 22.8006 17.9166 22.35V17.9166H22.35C22.8006 17.9166 23.1666 17.5506 23.1666 17.1V15.8167C23.1666 15.3661 22.8006 15 22.35 15Z" fill="#1A1365"/>
<path d="M22.35 40.0835H17.9166V35.6502C17.9166 35.1995 17.5506 34.8335 17.1 34.8335H15.8167C15.3661 34.8335 15 35.1995 15 35.6502V40.0835C15 40.8564 15.3077 41.5987 15.8546 42.1455C16.4014 42.6924 17.1437 43.0001 17.9166 43.0001H22.35C22.8006 43.0001 23.1666 42.6341 23.1666 42.1834V40.9001C23.1666 40.4495 22.8006 40.0835 22.35 40.0835Z" fill="#1A1365"/>
<path d="M42.182 34.5415H40.8987C40.448 34.5415 40.082 34.9075 40.082 35.3582V40.083H35.6487C35.1981 40.083 34.832 40.4491 34.832 40.8997V42.183C34.832 42.6336 35.1981 42.9997 35.6487 42.9997H40.082C40.8549 42.9997 41.5972 42.692 42.1441 42.1451C42.6909 41.5982 42.9986 40.8559 42.9986 40.083V35.3582C42.9986 34.9076 42.6326 34.5415 42.182 34.5415Z" fill="#1A1365"/>
<path d="M40.082 15H35.6487C35.1981 15 34.832 15.366 34.832 15.8167V17.1C34.832 17.5506 35.1981 17.9166 35.6487 17.9166H40.082V22.35C40.082 22.8006 40.448 23.1666 40.8987 23.1666H42.182C42.6326 23.1666 42.9986 22.8006 42.9986 22.35V17.9166C42.9986 17.1437 42.6909 16.4014 42.1441 15.8546C41.5972 15.3077 40.8549 15 40.082 15Z" fill="#1A1365"/>
<path d="M27.1653 30.0206C26.3967 29.9462 25.6647 29.6546 25.0565 29.1806C24.9909 29.1281 24.9501 29.0508 24.9457 28.9677C24.9413 28.8831 24.9734 28.8015 25.0332 28.7431L25.8674 27.9119C25.9695 27.8127 26.1284 27.801 26.2436 27.8856C26.5455 28.0883 26.8897 28.2181 27.2499 28.2648C27.3928 28.2881 27.4963 28.4121 27.4949 28.5564V29.7231C27.4978 29.8091 27.4628 29.8908 27.3986 29.9477C27.3359 30.0045 27.2498 30.0323 27.1653 30.0206Z" fill="#1A1365"/>
<path d="M30.3516 29.729V28.5623C30.3501 28.4179 30.4537 28.294 30.5966 28.2706C30.9524 28.2225 31.2937 28.0927 31.5912 27.8915C31.7064 27.8069 31.8653 27.8186 31.9674 27.9177L32.7899 28.7431C32.8497 28.8015 32.8832 28.8831 32.8789 28.9662C32.8745 29.0508 32.8351 29.1281 32.7695 29.1806C32.1614 29.6546 31.4293 29.9462 30.6608 30.0206C30.5805 30.025 30.5018 29.9973 30.4435 29.9419C30.3851 29.8864 30.3516 29.8092 30.3516 29.729Z" fill="#1A1365"/>
<path d="M34.3083 22.5454C32.9506 21.0871 31.0503 20.2573 29.0585 20.25C26.9497 20.2558 24.9444 21.1585 23.5403 22.7321C22.1986 24.2006 21.5526 26.1766 21.7669 28.1539C22.0265 32.2781 23.0707 37.7497 29.0585 37.7497C34.8335 37.7497 35.93 32.6164 36.2537 28.1424C36.4199 26.0861 35.7141 24.0548 34.3083 22.5454ZM23.5167 28.0259V27.9851C23.4832 27.6438 23.4832 27.2997 23.5167 26.9584H34.4863C34.5257 27.3098 34.5315 27.6642 34.5067 28.0171C34.4324 29.3442 34.2267 30.6611 33.8943 31.9487C29.5192 30.6274 29.1343 30.6274 29.0003 30.6274C28.8662 30.6274 28.4753 30.6274 24.1264 31.9428C23.7793 30.6638 23.5737 29.3499 23.511 28.0258L23.5167 28.0259ZM29.0555 22C30.5663 22 32.0086 22.6343 33.0281 23.7499C33.4306 24.1816 33.7631 24.6731 34.011 25.2082H23.9747C24.2008 24.7314 24.4954 24.291 24.8498 23.8987C25.9202 22.6985 27.4483 22.0087 29.0555 22ZM29.0555 35.9999C27.4834 35.9999 25.8647 35.6207 24.7708 33.5761C26.687 32.9928 28.5422 32.4707 28.9999 32.3832C29.4607 32.4707 31.3332 33.0103 33.2726 33.5907C32.2985 35.4924 30.8405 35.9999 29.0555 35.9999Z" fill="#1A1365"/>
<defs>
<radialGradient id="paint0_radial_114_1573" cx="0" cy="0" r="1" gradientUnits="userSpaceOnUse" gradientTransform="translate(9 11.5) rotate(43.9191) scale(56.225)">
<stop stop-color="#FFA642" stop-opacity="0.88"/>
<stop offset="0.416" stop-color="#FF8096" stop-opacity="0.37"/>
<stop offset="1" stop-color="#FFE7BA" stop-opacity="0"/>
<stop offset="1" stop-color="#FFE7BA" stop-opacity="0.36"/>
</radialGradient>
</defs>
</svg>
