<svg width="58" height="58" viewBox="0 0 58 58" fill="none" xmlns="http://www.w3.org/2000/svg">
<circle cx="29" cy="29" r="29" fill="url(#paint0_radial_114_1536)" fill-opacity="0.6"/>
<path d="M41.8182 40.5618L40.0724 38.8129C41.1643 36.649 40.5227 34.0118 38.5594 32.5912C36.5945 31.1708 33.8894 31.3867 32.1759 33.1002C30.4623 34.8137 30.2465 37.5187 31.6669 39.4837C33.0874 41.4471 35.7245 42.0887 37.8886 40.9967L39.6375 42.7426C39.801 42.9076 40.0231 43.0001 40.2544 43.0001C40.4858 43.0001 40.7078 42.9076 40.8713 42.7426L41.8306 41.7833C42.1622 41.4424 42.1575 40.8965 41.8182 40.5618ZM36.9753 37.8998C36.4463 38.4304 35.6505 38.5877 34.958 38.3024C34.2655 38.0155 33.8152 37.34 33.8152 36.592C33.8152 35.844 34.2655 35.1684 34.958 34.8816C35.6505 34.5963 36.4463 34.7536 36.9753 35.2841C37.6971 36.0074 37.6971 37.1765 36.9753 37.8998Z" fill="#1A1365"/>
<path d="M29.6213 22.0947H34.0015C34.2406 22.0947 34.4334 22.3338 34.4334 22.5266V23.5136C34.4334 23.7527 34.2406 23.9455 34.0015 23.9455H29.6213C29.3823 23.9455 29.1895 23.7065 29.1895 23.5136V22.5266C29.1895 22.2875 29.3822 22.0947 29.6213 22.0947Z" fill="#1A1365"/>
<path d="M29.6213 25.7959H34.0015C34.2406 25.7959 34.4334 26.035 34.4334 26.2278V27.2148C34.4334 27.4539 34.2406 27.6467 34.0015 27.6467H29.6213C29.3823 27.6467 29.1895 27.4076 29.1895 27.2148V26.2278C29.1895 25.9887 29.3822 25.7959 29.6213 25.7959Z" fill="#1A1365"/>
<path d="M28.3996 33.199C28.7944 32.3523 29.3342 31.5811 29.9974 30.9226C30.2843 30.6296 30.5927 30.3581 30.9228 30.1144H28.1035C27.9015 30.116 27.7071 30.0358 27.5637 29.8939C27.4203 29.7505 27.3401 29.5577 27.3385 29.3556V18.8434C27.3401 18.6414 27.4203 18.4486 27.5637 18.3052C27.7071 18.1633 27.9015 18.0831 28.1035 18.0846H32.3388L36.5922 22.2271V28.6276C37.257 28.7356 37.9124 28.8975 38.5509 29.115C38.8131 29.1983 39.1 29.152 39.3236 28.9885C39.5457 28.8266 39.6768 28.5675 39.6768 28.2914V21.2896C39.6752 21.0567 39.5811 20.8347 39.4146 20.6727L33.8408 15.2439C33.6758 15.0835 33.4537 14.9955 33.2239 15.0002H28.1034C25.9813 15.0017 24.2585 16.7214 24.2539 18.8436V29.3558C24.2585 31.4779 25.9813 33.1976 28.1034 33.1991L28.3996 33.199Z" fill="#1A1365"/>
<path d="M27.6467 37.9459C27.6437 38.1619 27.5557 38.3685 27.4015 38.5197C27.2473 38.6708 27.0391 38.7541 26.8232 38.751H18.9081C18.6922 38.7541 18.484 38.6708 18.3298 38.5197C18.1756 38.3685 18.0877 38.1618 18.0846 37.9459V27.2178C18.0877 27.0018 18.1756 26.7952 18.3298 26.644C18.484 26.4929 18.6922 26.4096 18.9081 26.4127H20.3055C20.782 26.4127 21.1691 26.0256 21.1691 25.549V24.1918C21.1691 23.7153 20.782 23.3281 20.3055 23.3281H18.9081C16.7551 23.325 15.0062 25.0647 15 27.2178V37.946C15.0062 40.099 16.7551 41.8387 18.9081 41.8356H26.8232C27.2828 41.8356 27.7393 41.7539 28.1712 41.595C28.3994 41.504 28.5799 41.3189 28.6631 41.0876C28.748 40.8562 28.7295 40.6002 28.6122 40.3827C28.219 39.6008 27.8966 38.7849 27.6467 37.9459Z" fill="#1A1365"/>
<defs>
<radialGradient id="paint0_radial_114_1536" cx="0" cy="0" r="1" gradientUnits="userSpaceOnUse" gradientTransform="translate(9 11.5) rotate(43.9191) scale(56.225)">
<stop stop-color="#FFA642" stop-opacity="0.88"/>
<stop offset="0.416" stop-color="#FF8096" stop-opacity="0.37"/>
<stop offset="1" stop-color="#FFE7BA" stop-opacity="0"/>
<stop offset="1" stop-color="#FFE7BA" stop-opacity="0.36"/>
</radialGradient>
</defs>
</svg>
