<svg width="58" height="58" viewBox="0 0 58 58" fill="none" xmlns="http://www.w3.org/2000/svg">
<circle cx="29" cy="29" r="29" fill="url(#paint0_radial_114_1588)" fill-opacity="0.6"/>
<path d="M41.6272 27.7484C40.8623 27.7452 40.1396 28.0917 39.6615 28.6889L35.3227 27.4349V27.1214C35.318 25.5585 34.4824 24.1163 33.128 23.3341L34.2003 20.014C35.3995 19.9607 36.3917 19.064 36.5689 17.8774C36.7444 16.6892 36.0547 15.5433 34.9229 15.1435C33.7911 14.7438 32.5355 15.2015 31.9257 16.2362C31.3175 17.2707 31.5259 18.5922 32.4257 19.387L31.3566 22.7541C31.2155 22.7322 31.0745 22.7322 30.9334 22.7322C30.0038 22.7322 29.0993 23.0285 28.35 23.5787L23.8823 19.6347C24.3118 18.5139 23.8855 17.2457 22.8681 16.6092C21.8492 15.9744 20.523 16.15 19.7048 17.0278C18.8865 17.9072 18.805 19.2412 19.512 20.2131C20.2174 21.1835 21.5122 21.5189 22.6001 21.011L27.099 24.9864C26.7416 25.6275 26.552 26.347 26.5441 27.0807L18.5117 28.7517C17.7891 27.7924 16.4895 27.4804 15.4095 28.0071C14.331 28.5323 13.7761 29.7487 14.0849 30.9087C14.3952 32.0687 15.4831 32.8462 16.6808 32.7632C17.8784 32.6801 18.8503 31.7615 18.9976 30.5701L26.9325 28.921C27.1834 29.4728 27.5439 29.9666 27.9922 30.3726L23.6907 38.0037C22.4993 37.8501 21.3675 38.5633 20.9897 39.703C20.6135 40.8426 21.0963 42.0888 22.1419 42.6783C23.1891 43.2661 24.5058 43.031 25.2818 42.1155C26.0593 41.2001 26.0797 39.8629 25.3304 38.9255L29.6223 31.3101C30.0455 31.4449 30.4875 31.5123 30.9327 31.5107C31.102 31.5091 31.2698 31.4997 31.4375 31.4794L33.7356 37.9411C32.7997 38.6935 32.5285 40.0024 33.0882 41.0653C33.6462 42.1265 34.8799 42.6438 36.0289 42.2974C37.1795 41.9525 37.9226 40.8395 37.8019 39.6466C37.6827 38.4521 36.7328 37.51 35.5383 37.3987L33.2151 30.8651C33.8719 30.467 34.4128 29.9026 34.7827 29.2286L39.1344 30.5109C39.2331 31.4968 39.9025 32.3308 40.843 32.6412C41.7836 32.9516 42.8198 32.6804 43.4859 31.9467C44.1522 31.2147 44.3246 30.1582 43.9265 29.2505C43.5283 28.3444 42.6332 27.7566 41.6425 27.7519L41.6272 27.7484Z" fill="#1A1365"/>
<defs>
<radialGradient id="paint0_radial_114_1588" cx="0" cy="0" r="1" gradientUnits="userSpaceOnUse" gradientTransform="translate(9 11.5) rotate(43.9191) scale(56.225)">
<stop stop-color="#FFA642" stop-opacity="0.88"/>
<stop offset="0.416" stop-color="#FF8096" stop-opacity="0.37"/>
<stop offset="1" stop-color="#FFE7BA" stop-opacity="0"/>
<stop offset="1" stop-color="#FFE7BA" stop-opacity="0.36"/>
</radialGradient>
</defs>
</svg>
