<svg width="58" height="58" viewBox="0 0 58 58" fill="none" xmlns="http://www.w3.org/2000/svg">
<circle cx="29" cy="29" r="29" fill="url(#paint0_radial_114_1563)" fill-opacity="0.6"/>
<path d="M36.4594 40.2502L32.7211 36.5149C32.5682 36.3634 32.4824 36.1576 32.4824 35.9433C32.4824 35.7289 32.5682 35.5232 32.7211 35.3717L33.6099 34.4828C33.7599 34.3285 33.9657 34.2413 34.1815 34.2413C34.3973 34.2413 34.603 34.3285 34.7531 34.4828L37.0394 36.7692L40.3346 33.474C40.4861 33.3211 40.6919 33.2354 40.9062 33.2354C41.1206 33.2354 41.3263 33.3211 41.4778 33.474L42.3667 34.3628C42.5196 34.5143 42.6053 34.7201 42.6053 34.9344C42.6053 35.1488 42.5196 35.3545 42.3667 35.506L37.5909 40.2503C37.4409 40.4018 37.2379 40.4861 37.025 40.4861C36.8121 40.4861 36.6094 40.4017 36.4594 40.2502Z" fill="#1A1365"/>
<path d="M39.0579 20.1188L31.3871 15.6891C29.7952 14.7703 27.8347 14.7703 26.243 15.6891L18.5721 20.1188C16.9802 21.0376 16 22.7367 16 24.5745V33.4342C16 35.2719 16.9803 36.9709 18.5721 37.8899L26.243 42.3141C27.0246 42.7642 27.912 43.0014 28.8151 43C29.0638 43 29.3124 42.9828 29.5582 42.9457C29.9526 42.8871 30.2455 42.547 30.2441 42.1483V29.9593L38.772 25.035V29.6304C38.772 30.0719 39.1307 30.4306 39.5723 30.4306H40.8183C41.2598 30.4306 41.6185 30.0719 41.6185 29.6304V24.5748C41.6214 22.7386 40.6455 21.0406 39.0579 20.1188ZM27.6719 18.164C28.3792 17.7553 29.2509 17.7553 29.9582 18.164L37.4546 22.4938L28.815 27.4839L20.1755 22.4938L27.6719 18.164ZM20.001 35.409C19.2937 35.0003 18.8578 34.2458 18.8578 33.4284V25.0347L27.3858 29.959V39.6758L20.001 35.409Z" fill="#1A1365"/>
<defs>
<radialGradient id="paint0_radial_114_1563" cx="0" cy="0" r="1" gradientUnits="userSpaceOnUse" gradientTransform="translate(9 11.5) rotate(43.9191) scale(56.225)">
<stop stop-color="#FFA642" stop-opacity="0.88"/>
<stop offset="0.416" stop-color="#FF8096" stop-opacity="0.37"/>
<stop offset="1" stop-color="#FFE7BA" stop-opacity="0"/>
<stop offset="1" stop-color="#FFE7BA" stop-opacity="0.36"/>
</radialGradient>
</defs>
</svg>
