<svg width="58" height="58" viewBox="0 0 58 58" fill="none" xmlns="http://www.w3.org/2000/svg">
<circle cx="29" cy="29" r="29" fill="url(#paint0_radial_114_1549)" fill-opacity="0.6"/>
<path d="M25.4955 24.7632H26.4718C26.7083 24.7632 26.899 24.9996 26.899 25.1903V34.7092C26.899 34.9457 26.7083 35.1364 26.4718 35.1364H25.4955C25.2591 35.1364 25.0684 34.8999 25.0684 34.7092V25.1903C25.0684 24.9539 25.259 24.7632 25.4955 24.7632Z" fill="#1A1365"/>
<path d="M20.6146 27.2041H21.5909C21.8274 27.2041 22.0181 27.4405 22.0181 27.6313V34.7094C22.0181 34.9459 21.8274 35.1366 21.5909 35.1366H20.6146C20.3782 35.1366 20.1875 34.9001 20.1875 34.7094V27.6313C20.1875 27.3948 20.3782 27.2041 20.6146 27.2041Z" fill="#1A1365"/>
<path d="M28.4032 38.7974H20.5409C19.1664 38.7974 18.0513 37.6823 18.0513 36.3078V20.5406C18.0513 19.1662 19.1664 18.0511 20.5409 18.0511H36.3081C37.6825 18.0511 38.7976 19.1662 38.7976 20.5406V28.4029C38.7992 28.763 39.0264 29.0833 39.3651 29.2053C39.78 29.3548 40.1812 29.5379 40.5641 29.7545C40.825 29.9086 41.1484 29.9131 41.4138 29.7636C41.6777 29.6157 41.844 29.3381 41.8486 29.0345V20.5407C41.8486 17.4806 39.3681 15 36.3079 15H20.5407C17.4806 15 15 17.4804 15 20.5407V36.3079C15 39.3679 17.4804 41.8486 20.5407 41.8486H29.0345C29.3396 41.8455 29.6187 41.6808 29.7682 41.4168C29.9192 41.1514 29.9162 40.8265 29.7606 40.5641C29.544 40.1812 29.3609 39.78 29.2114 39.3651C29.0894 39.0234 28.7663 38.7974 28.4032 38.7974Z" fill="#1A1365"/>
<path d="M42.7462 40.5882L41.0193 38.8583C42.0993 36.7181 41.4647 34.1096 39.5228 32.7046C37.5794 31.2996 34.9038 31.5132 33.2089 33.208C31.5141 34.9028 31.3006 37.5783 32.7055 39.5219C34.1105 41.4638 36.7189 42.0984 38.8593 41.0183L40.5892 42.7452C40.7509 42.9084 40.9706 42.9999 41.1994 42.9999C41.4282 42.9999 41.6479 42.9084 41.8096 42.7452L42.7584 41.7963C43.0864 41.4592 43.0818 40.9193 42.7462 40.5882ZM37.956 37.9553C37.4328 38.48 36.6457 38.6356 35.9607 38.3534C35.2758 38.0697 34.8304 37.4015 34.8304 36.6617C34.8304 35.9218 35.2758 35.2537 35.9607 34.9699C36.6457 34.6877 37.4328 34.8433 37.956 35.3681C38.67 36.0835 38.67 37.2398 37.956 37.9553Z" fill="#1A1365"/>
<path d="M36.6626 28.7295V22.1395C36.6626 22.0266 36.6183 21.9183 36.5375 21.8375C36.4567 21.7566 36.3483 21.7124 36.2355 21.7124H35.2592C35.1463 21.7124 35.038 21.7566 34.9571 21.8375C34.8763 21.9183 34.832 22.0266 34.832 22.1395V28.9432C35.4316 28.8028 36.0463 28.7311 36.6626 28.7295Z" fill="#1A1365"/>
<path d="M31.0536 31.0544C31.2825 30.8255 31.525 30.6105 31.7798 30.4106V27.6312C31.7798 27.5183 31.7355 27.41 31.6547 27.3292C31.5738 27.2483 31.4655 27.2041 31.3526 27.2041H30.3763C30.2635 27.2041 30.1552 27.2483 30.0743 27.3292C29.9935 27.41 29.9492 27.5183 29.9492 27.6312V32.4366C30.2635 31.9347 30.6342 31.4708 31.0536 31.0544Z" fill="#1A1365"/>
<defs>
<radialGradient id="paint0_radial_114_1549" cx="0" cy="0" r="1" gradientUnits="userSpaceOnUse" gradientTransform="translate(9 11.5) rotate(43.9191) scale(56.225)">
<stop stop-color="#FFA642" stop-opacity="0.88"/>
<stop offset="0.416" stop-color="#FF8096" stop-opacity="0.37"/>
<stop offset="1" stop-color="#FFE7BA" stop-opacity="0"/>
<stop offset="1" stop-color="#FFE7BA" stop-opacity="0.36"/>
</radialGradient>
</defs>
</svg>
