<svg width="88" height="88" viewBox="0 0 88 88" fill="none" xmlns="http://www.w3.org/2000/svg">
<rect x="-1.32031" y="42.7734" width="65.4405" height="65.4405" rx="12" transform="rotate(-45 -1.32031 42.7734)" fill="url(#paint0_radial_114_1627)" fill-opacity="0.6"/>
<path d="M32.8506 51.7535L25.1979 43.5136C24.934 43.2256 24.934 42.7897 25.1979 42.5017L32.8506 34.2618C32.988 34.1111 33.1832 34.0196 33.3893 34.0115C33.5955 34.0007 33.7989 34.0761 33.9501 34.2133L35.2476 35.3705C35.4015 35.505 35.4949 35.6961 35.5059 35.8979C35.5169 36.0998 35.4427 36.2989 35.3025 36.4469L29.1837 43.0076L35.2916 49.5791C35.4317 49.7271 35.506 49.9262 35.495 50.1281C35.484 50.3299 35.3905 50.5209 35.2366 50.6555L33.9391 51.8019C33.7879 51.9364 33.59 52.0091 33.3839 51.9983C33.1804 51.9903 32.988 51.9016 32.8506 51.7535Z" fill="white"/>
<path d="M40.3206 50.0743L44.4933 35.0934C44.606 34.6925 45.1063 34.4772 45.4389 34.566L47.135 35.0181C47.5446 35.1284 47.7864 35.5428 47.6737 35.9438L43.5011 50.9247C43.3884 51.3256 42.8881 51.5409 42.5554 51.4521L40.8594 51C40.4498 50.8897 40.2079 50.4753 40.3206 50.0743Z" fill="white"/>
<path d="M54.0608 51.8021L52.7634 50.645C52.6094 50.5104 52.516 50.3194 52.505 50.1176C52.494 49.9157 52.5682 49.7166 52.7084 49.5686L58.8437 43.0079L52.7084 36.4364C52.5682 36.2884 52.494 36.0893 52.505 35.8874C52.516 35.6856 52.6094 35.4945 52.7634 35.36L54.0608 34.2028C54.212 34.0656 54.4154 33.9903 54.6216 34.001C54.8278 34.0091 55.0229 34.1006 55.1604 34.2513L62.8017 42.5023C63.0656 42.7902 63.0656 43.2262 62.8017 43.5141L55.1491 51.7541C55.0117 51.9021 54.8192 51.9909 54.6158 51.999C54.4097 52.0097 54.212 51.9367 54.0608 51.8021Z" fill="white"/>
<defs>
<radialGradient id="paint0_radial_114_1627" cx="0" cy="0" r="1" gradientUnits="userSpaceOnUse" gradientTransform="translate(31.3999 75.4937) rotate(122.819) scale(60.3708)">
<stop stop-color="#FFA642" stop-opacity="0.88"/>
<stop offset="0.416" stop-color="#FF8096" stop-opacity="0.37"/>
<stop offset="1" stop-color="#FFE7BA" stop-opacity="0"/>
<stop offset="1" stop-color="#FFE7BA" stop-opacity="0.36"/>
</radialGradient>
</defs>
</svg>
