<svg width="88" height="88" viewBox="0 0 88 88" fill="none" xmlns="http://www.w3.org/2000/svg">
<path d="M15.8622 69.1378C0.0459414 53.3216 0.0459414 27.6784 15.8622 11.8622C31.6784 -3.95406 57.3216 -3.95406 73.1378 11.8622C88.9541 27.6784 88.9541 53.3216 73.1378 69.1378C57.3216 84.9541 31.6784 84.9541 15.8622 69.1378Z" fill="url(#paint0_radial_114_1501)" fill-opacity="0.6"/>
<path d="M63.0407 39.5587C63.0337 35.0797 61.4286 30.7485 58.5124 27.3483C55.5962 23.9482 51.5611 21.7015 47.1365 21.0107C42.7092 20.3221 38.1831 21.2339 34.3714 23.5862C30.5575 25.9385 27.7119 29.5738 26.3415 33.839C24.9715 38.1041 25.1712 42.7171 26.9008 46.8506C28.6327 50.9818 31.7816 54.3584 35.7814 56.3749V65.1448C35.7767 65.5983 36.0046 66.0236 36.3876 66.2681C36.7707 66.5124 37.2524 66.543 37.6613 66.3479L44.2414 63.3071L50.8216 66.3479C51.2305 66.5406 51.7099 66.5124 52.0906 66.2704C52.4736 66.0284 52.7039 65.6053 52.7015 65.1542V56.3746C55.8129 54.8025 58.426 52.3985 60.252 49.4306C62.0779 46.4602 63.0437 43.0435 63.0414 39.5586L63.0407 39.5587ZM44.2412 53.6586C40.5025 53.6586 36.9163 52.1734 34.2706 49.5298C31.6269 46.8838 30.1417 43.298 30.1417 39.5591C30.1417 35.8203 31.6269 32.2342 34.2706 29.5885C36.9166 26.9448 40.5024 25.4596 44.2412 25.4596C47.9801 25.4596 51.5661 26.9448 54.2119 29.5885C56.8555 32.2345 58.3407 35.8203 58.3407 39.5591C58.3407 43.3026 56.8555 46.8912 54.2119 49.5418C51.5706 52.1901 47.9843 53.6824 44.2412 53.6918V53.6586Z" fill="white"/>
<path d="M52.1322 33.9941C51.8855 33.7403 51.5471 33.5969 51.1922 33.5969C50.8374 33.5969 50.499 33.7403 50.2523 33.9941L43.301 40.9688L38.3332 35.9775C38.0841 35.7261 37.7457 35.5851 37.3932 35.5851C37.0407 35.5851 36.7024 35.7261 36.4533 35.9775L35.0104 37.4439C34.7566 37.6907 34.6133 38.029 34.6133 38.3839C34.6133 38.7387 34.7566 39.0771 35.0104 39.3239L42.3612 46.6698C42.6103 46.9212 42.9487 47.0622 43.3012 47.0622C43.6536 47.0622 43.992 46.9212 44.2411 46.6698L53.594 37.317C53.8454 37.0679 53.9864 36.7295 53.9864 36.377C53.9864 36.0245 53.8454 35.6861 53.594 35.437L52.1322 33.9941Z" fill="white"/>
<defs>
<radialGradient id="paint0_radial_114_1501" cx="0" cy="0" r="1" gradientUnits="userSpaceOnUse" gradientTransform="translate(44.4998 40.4999) rotate(89.5224) scale(54.6087)">
<stop stop-color="#FFA642" stop-opacity="0.88"/>
<stop offset="0.416" stop-color="#FF8096" stop-opacity="0.37"/>
<stop offset="1" stop-color="#FFE7BA" stop-opacity="0"/>
<stop offset="1" stop-color="#FFE7BA" stop-opacity="0.36"/>
</radialGradient>
</defs>
</svg>
