<svg width="88" height="88" viewBox="0 0 88 88" fill="none" xmlns="http://www.w3.org/2000/svg">
<rect x="6" width="77" height="77" rx="18" fill="url(#paint0_radial_114_1618)" fill-opacity="0.6"/>
<path fill-rule="evenodd" clip-rule="evenodd" d="M57.9929 40.7791L59.2121 42.0429C59.9663 42.8161 60.2038 43.98 59.8168 45.0044C59.1955 46.6643 58.3334 48.214 57.2587 49.6017C56.5976 50.4592 55.5096 50.8328 54.4847 50.5521L52.8237 50.0941C51.724 51.0032 50.4998 51.735 49.1892 52.2636L48.7473 53.9854C48.4733 55.0477 47.6145 55.8397 46.5647 55.9998C44.8688 56.2667 43.1446 56.2667 41.4486 55.9998C40.3989 55.8397 39.5401 55.0477 39.266 53.9854L38.8241 52.2636C37.5135 51.735 36.2893 51.0032 35.1897 50.0941L33.5286 50.5521C32.5054 50.8363 31.4157 50.4626 30.7579 49.6017C29.6816 48.2156 28.8178 46.6642 28.1965 45.0044C27.8062 43.9834 28.0387 42.8194 28.7879 42.0429L30.0071 40.7516C29.8045 39.3156 29.8045 37.8555 30.0071 36.4196L28.7879 35.1558C28.0337 34.3827 27.7962 33.2187 28.1832 32.1943C28.8045 30.5361 29.6682 28.9847 30.7413 27.597C31.4024 26.7395 32.4904 26.3659 33.5153 26.6466L35.1763 27.1046C36.276 26.1955 37.5002 25.4637 38.8108 24.9351L39.2527 23.2134C39.5267 22.151 40.3855 21.359 41.4353 21.1989C43.1312 20.9337 44.8554 20.9337 46.5514 21.1989C47.6011 21.359 48.4599 22.151 48.734 23.2134L49.1759 24.9351C50.4865 25.4637 51.7107 26.1955 52.8103 27.1046L54.4714 26.6466C55.4946 26.3624 56.5843 26.7361 57.2421 27.597C58.3184 28.9849 59.1822 30.5345 59.8035 32.1943C60.1938 33.2153 59.9613 34.3793 59.2121 35.1558L57.9929 36.4471C58.1955 37.8831 58.1955 39.3432 57.9929 40.7791ZM54.5809 40.9855C54.9031 39.4118 54.9031 37.7865 54.5809 36.2128L54.4148 35.2968L56.5775 33.055C56.1423 32.0047 55.5842 31.013 54.9164 30.1039L51.9663 30.9235L51.3019 30.2898C50.1558 29.2051 48.7953 28.3942 47.3153 27.9103L46.4482 27.6245L45.6575 24.5666C44.5645 24.4289 43.4615 24.4289 42.3685 24.5666L41.5779 27.6245L40.7108 27.9103C39.2307 28.3941 37.8703 29.2051 36.7242 30.2898L36.0597 30.9235L33.1096 30.1039C32.4419 31.013 31.8838 32.0047 31.4486 33.055L33.598 35.283L33.4053 36.199C33.0831 37.7727 33.0831 39.398 33.4053 40.9717L33.598 41.8877L31.4353 44.1295C31.8705 45.1797 32.4286 46.1715 33.0964 47.0806L36.0465 46.261L36.7109 46.8946C37.857 47.9793 39.2175 48.7903 40.6975 49.2741L41.5812 49.5737L42.3719 52.6316C43.4649 52.7694 44.5678 52.7694 45.6608 52.6316L46.4548 49.5737L47.3219 49.2879C48.802 48.8041 50.1624 47.9931 51.3085 46.9084L51.973 46.2748L54.8898 47.0944C55.5576 46.1853 56.1157 45.1935 56.5509 44.1432L54.3882 41.9015L54.5809 40.9855ZM39 35.1136V39.4626V39.4639C39.0002 40.274 39.2049 41.0697 39.5935 41.7703C39.9823 42.4714 40.5414 43.0524 41.2139 43.4546L43.6242 44.8954C43.857 45.0349 44.143 45.0349 44.3758 44.8954L46.7861 43.4552C47.4586 43.0531 48.0177 42.472 48.4065 41.771C48.7953 41.0699 49 40.2738 49 39.4632V35.1136C49 34.5429 48.6752 34.0273 48.1733 33.8022L44.2982 32.064C44.2039 32.0218 44.1025 32 44 32C43.8975 32 43.7961 32.0218 43.7018 32.064L39.8267 33.8016C39.5813 33.9116 39.3721 34.0945 39.2251 34.3278C39.0782 34.561 38.9999 34.8342 39 35.1136Z" fill="white"/>
<defs>
<radialGradient id="paint0_radial_114_1618" cx="0" cy="0" r="1" gradientUnits="userSpaceOnUse" gradientTransform="translate(44.5 38.5) rotate(122.819) scale(71.0348)">
<stop stop-color="#FFA642" stop-opacity="0.88"/>
<stop offset="0.416" stop-color="#FF8096" stop-opacity="0.37"/>
<stop offset="1" stop-color="#FFE7BA" stop-opacity="0"/>
<stop offset="1" stop-color="#FFE7BA" stop-opacity="0.36"/>
</radialGradient>
</defs>
</svg>
