<svg width="88" height="88" viewBox="0 0 88 88" fill="none" xmlns="http://www.w3.org/2000/svg">
<rect width="88" height="88" fill="white"/>
<path d="M33.362 8.22221C38.09 -0.0740843 49.91 -0.0740628 54.6381 8.22223L84.336 60.3334C89.064 68.6297 83.1539 79 73.6979 79H14.3021C4.84602 79 -1.06398 68.6296 3.66404 60.3333L33.362 8.22221Z" fill="url(#paint0_radial_114_1525)" fill-opacity="0.6"/>
<path d="M54.9222 28.6076C51.673 25.4591 47.2688 23.7989 42.7546 24.0195C35.2917 24.3672 28.476 30.3803 27.2407 37.6866C26.2127 43.7885 28.5311 50.1705 33.164 53.94C33.6569 54.3726 33.9594 54.9811 34.0102 55.6362L34.5644 60.182C34.9811 63.5044 37.7988 65.9978 41.1391 66H45.8606C49.2029 65.9958 52.0184 63.4981 52.431 60.1738L52.9683 55.7553C53.036 55.0238 53.3893 54.3496 53.9499 53.8768C57.7956 50.7685 59.9999 45.9132 59.9999 40.5576C60.0189 36.0437 58.182 31.7226 54.9222 28.6076ZM48.2294 59.6393C48.0919 60.8457 47.0724 61.7595 45.8602 61.7595H41.1387C39.9266 61.7573 38.9091 60.8456 38.7695 59.6393L38.2195 55.1147C38.1942 54.9197 38.1646 54.7246 38.1265 54.5338H48.8851C48.8322 54.7691 48.7941 55.0066 48.7666 55.2462L48.2294 59.6393ZM51.2925 50.5564C50.7869 50.9741 50.3469 51.4618 49.9809 52.0067H44.7687V43.9242C46.6111 43.7334 48.3923 43.1545 49.9978 42.228C50.1353 42.1474 50.2347 42.0139 50.2728 41.8591C50.3109 41.7043 50.2834 41.5389 50.1967 41.4054L49.4817 40.252C49.3167 39.9848 48.9698 39.8936 48.6948 40.0442C47.1231 40.9813 45.3293 41.4774 43.4994 41.4774C41.6696 41.4774 39.8758 40.9813 38.3041 40.0442C38.0291 39.8936 37.6822 39.9848 37.5172 40.252L36.8022 41.4054C36.7155 41.5389 36.688 41.7043 36.726 41.8591C36.7641 42.0139 36.8635 42.1474 37.001 42.228C38.6066 43.1545 40.3877 43.7333 42.2302 43.9242V52.0067H37.0687C36.7197 51.4978 36.3008 51.0399 35.8249 50.6497C32.3642 47.8298 30.6338 43.0172 31.4123 38.3949C32.3134 33.0519 37.4877 28.5148 42.9409 28.2602H43.4994C46.7528 28.2602 49.8748 29.5556 52.1747 31.8624C54.4762 34.1671 55.7687 37.2967 55.7687 40.5577C55.7687 44.6243 54.1357 48.2755 51.2926 50.5736L51.2925 50.5564Z" fill="white"/>
<defs>
<radialGradient id="paint0_radial_114_1525" cx="0" cy="0" r="1" gradientUnits="userSpaceOnUse" gradientTransform="translate(44 40.5) rotate(101.376) scale(70.2128 76.6743)">
<stop stop-color="#FFA642" stop-opacity="0.88"/>
<stop offset="0.416" stop-color="#FF8096" stop-opacity="0.37"/>
<stop offset="1" stop-color="#FFE7BA" stop-opacity="0"/>
<stop offset="1" stop-color="#FFE7BA" stop-opacity="0.36"/>
</radialGradient>
</defs>
</svg>
