<svg width="88" height="88" viewBox="0 0 88 88" fill="none" xmlns="http://www.w3.org/2000/svg">
<path d="M5 31.8824C5 14.3526 19.5391 0 37.2965 0C62.4255 0 83 20.1099 83 44.9167C83 62.6358 68.4493 77 50.5 77C25.371 77 5 56.6892 5 31.8824Z" fill="url(#paint0_radial_114_1511)" fill-opacity="0.6"/>
<path fill-rule="evenodd" clip-rule="evenodd" d="M33.5456 47.8169H41.585L41.5846 47.8168C41.8395 47.8199 42.067 47.9817 42.1525 48.2229C42.354 48.8183 42.6258 49.3878 42.9616 49.9206C43.0853 50.1069 43.099 50.3466 42.9937 50.5451C42.8899 50.742 42.6853 50.8672 42.4609 50.8702H33.5452C30.4824 50.8702 28 48.3876 28 45.3251V29.5452C28 26.4824 30.4826 24 33.5452 24H49.3251C52.3878 24 54.8702 26.4826 54.8702 29.5452V38.4609C54.8672 38.6853 54.742 38.8899 54.545 38.9937C54.3465 39.099 54.1069 39.0853 53.9206 38.9616C53.3878 38.6288 52.8183 38.3586 52.2229 38.1586C51.9802 38.0715 51.8168 37.8425 51.8168 37.5845V29.5451C51.8168 28.1695 50.7008 27.0535 49.3252 27.0535H44.9987L43.5728 31.3284H45.13C45.359 31.3284 45.5682 31.4567 45.6735 31.6613C45.7773 31.8658 45.759 32.1101 45.6247 32.2964L40.0615 40.0368C39.9775 40.1498 39.8279 40.1895 39.6982 40.1361C39.5699 40.0811 39.4936 39.9468 39.515 39.8078L40.5195 33.7714H38.1928C38.0142 33.7729 37.8432 33.6966 37.7257 33.5607C37.6081 33.4264 37.5547 33.2462 37.5822 33.0691L38.4982 27.0538H33.5456C32.17 27.0538 31.054 28.1698 31.054 29.5454V45.3253C31.054 46.7008 32.17 47.8169 33.5456 47.8169ZM49.9752 52.9515C46.6466 52.9515 43.7821 50.5995 43.1348 47.3343C42.4852 44.0711 44.2334 40.8036 47.3092 39.5307C50.3849 38.2578 53.9292 39.3367 55.7779 42.103C57.206 44.2416 57.3122 46.9293 56.2012 49.1257L58.6686 51.5932C59.146 52.0706 59.146 52.8422 58.6686 53.3196L57.3128 54.6755C56.8354 55.1529 55.9722 55.0613 55.5863 54.6755L53.1179 52.2071C52.1527 52.6937 51.0774 52.9528 49.9752 52.9515ZM49.9752 43.36C48.7261 43.3578 47.6515 44.2406 47.4073 45.4635C47.1632 46.6864 47.8171 47.9136 48.9703 48.391C50.1234 48.8706 51.4531 48.4673 52.1463 47.4297C52.8417 46.3943 52.7065 45.0101 51.8237 44.1272C51.3332 43.6368 50.6684 43.36 49.9752 43.36Z" fill="white"/>
<defs>
<radialGradient id="paint0_radial_114_1511" cx="0" cy="0" r="1" gradientUnits="userSpaceOnUse" gradientTransform="translate(44 38.5) rotate(123.157) scale(71.307 71.6826)">
<stop stop-color="#FFA642" stop-opacity="0.88"/>
<stop offset="0.416" stop-color="#FF8096" stop-opacity="0.37"/>
<stop offset="1" stop-color="#FFE7BA" stop-opacity="0"/>
<stop offset="1" stop-color="#FFE7BA" stop-opacity="0.36"/>
</radialGradient>
</defs>
</svg>
