<svg width="118" height="71" viewBox="0 0 118 71" fill="none" xmlns="http://www.w3.org/2000/svg">
<g clip-path="url(#clip0_114_1600)">
<path d="M33.5365 25.9034C33.5365 27.3468 33.6917 28.5171 33.9634 29.3754C34.274 30.2336 34.6621 31.1699 35.2055 32.1841C35.3996 32.4962 35.4773 32.8083 35.4773 33.0814C35.4773 33.4715 35.2444 33.8616 34.7398 34.2517L32.2944 35.8902C31.945 36.1243 31.5957 36.2413 31.2852 36.2413C30.897 36.2413 30.5088 36.0462 30.1207 35.6951C29.5773 35.11 29.1115 34.4858 28.7233 33.8616C28.3352 33.1984 27.947 32.4572 27.52 31.56C24.4924 35.149 20.6884 36.9435 16.1082 36.9435C12.8477 36.9435 10.247 36.0072 8.34502 34.1347C6.44305 32.2622 5.47266 29.7655 5.47266 26.6446C5.47266 23.3287 6.63713 20.6369 9.00489 18.6083C11.3727 16.5798 14.5167 15.5655 18.5148 15.5655C19.8345 15.5655 21.193 15.6825 22.6292 15.8776C24.0654 16.0726 25.5404 16.3847 27.0931 16.7358V13.888C27.0931 10.9232 26.472 8.85557 25.2687 7.64623C24.0266 6.43689 21.9305 5.85173 18.9417 5.85173C17.5832 5.85173 16.1858 6.00777 14.7496 6.35887C13.3134 6.70997 11.9161 7.13909 10.5575 7.68524C9.93647 7.95832 9.47068 8.11436 9.19897 8.19239C8.92726 8.27041 8.73318 8.30942 8.57792 8.30942C8.0345 8.30942 7.76279 7.91931 7.76279 7.10008V5.18854C7.76279 4.56436 7.84042 4.09623 8.0345 3.82316C8.22858 3.55008 8.57792 3.277 9.12134 3.00392C10.4799 2.30173 12.1102 1.71656 14.0121 1.24843C15.9141 0.741287 17.9325 0.507221 20.0674 0.507221C24.6865 0.507221 28.0634 1.56052 30.2371 3.66711C32.372 5.7737 33.4588 8.97261 33.4588 13.2638V25.9034H33.5365ZM17.7773 31.833C19.0582 31.833 20.3779 31.599 21.7753 31.1308C23.1727 30.6627 24.4148 29.8045 25.4628 28.6341C26.0838 27.8929 26.5496 27.0737 26.7825 26.1374C27.0154 25.2012 27.1707 24.0699 27.1707 22.7435V21.105C26.045 20.8319 24.8417 20.5979 23.5996 20.4418C22.3575 20.2858 21.1542 20.2078 19.9509 20.2078C17.3503 20.2078 15.4483 20.7149 14.1674 21.7682C12.8865 22.8215 12.2654 24.3039 12.2654 26.2545C12.2654 28.088 12.7312 29.4534 13.7016 30.3896C14.6332 31.3649 15.9917 31.833 17.7773 31.833ZM48.9463 36.0462C48.2477 36.0462 47.7819 35.9292 47.4713 35.6561C47.1608 35.4221 46.8891 34.8759 46.6562 34.1347L37.5345 3.9792C37.3016 3.19898 37.1852 2.69184 37.1852 2.41876C37.1852 1.79458 37.4957 1.44348 38.1167 1.44348H41.9207C42.6582 1.44348 43.1628 1.56052 43.4345 1.83359C43.745 2.06766 43.9779 2.61381 44.2108 3.35502L50.7319 29.1803L56.7871 3.35502C56.9812 2.5748 57.2141 2.06766 57.5246 1.83359C57.8352 1.59953 58.3786 1.44348 59.0773 1.44348H62.1825C62.92 1.44348 63.4246 1.56052 63.7351 1.83359C64.0457 2.06766 64.3174 2.61381 64.4727 3.35502L70.6055 29.4924L77.3207 3.35502C77.5536 2.5748 77.8253 2.06766 78.097 1.83359C78.4075 1.59953 78.9121 1.44348 79.6108 1.44348H83.2207C83.8417 1.44348 84.1911 1.75557 84.1911 2.41876C84.1911 2.61381 84.1523 2.80887 84.1134 3.04294C84.0746 3.277 83.997 3.58909 83.8417 4.01821L74.4871 34.1737C74.2542 34.9539 73.9825 35.4611 73.672 35.6951C73.3615 35.9292 72.8569 36.0852 72.197 36.0852H68.8588C68.1213 36.0852 67.6167 35.9682 67.3062 35.6951C66.9957 35.4221 66.724 34.9149 66.5687 34.1347L60.5523 8.97261L54.5746 34.0957C54.3806 34.8759 54.1477 35.383 53.8371 35.6561C53.5266 35.9292 52.9832 36.0462 52.2845 36.0462H48.9463ZM98.8246 37.0995C96.8062 37.0995 94.7878 36.8655 92.847 36.3973C90.9062 35.9292 89.3924 35.4221 88.3832 34.8369C87.7621 34.4858 87.3352 34.0957 87.1799 33.7446C87.0246 33.3935 86.947 33.0034 86.947 32.6523V30.6627C86.947 29.8435 87.2575 29.4534 87.8398 29.4534C88.0726 29.4534 88.3055 29.4924 88.5384 29.5704C88.7713 29.6484 89.1207 29.8045 89.5088 29.9605C90.8286 30.5457 92.2648 31.0138 93.7786 31.3259C95.3312 31.638 96.845 31.794 98.3977 31.794C100.843 31.794 102.745 31.3649 104.065 30.5067C105.384 29.6484 106.083 28.4001 106.083 26.8006C106.083 25.7083 105.734 24.8111 105.035 24.0699C104.336 23.3287 103.017 22.6655 101.115 22.0413L95.4865 20.2858C92.6529 19.3885 90.5569 18.0622 89.2759 16.3067C87.995 14.5902 87.3352 12.6786 87.3352 10.6501C87.3352 9.01162 87.6845 7.56821 88.3832 6.31986C89.0819 5.07151 90.0134 3.9792 91.1779 3.12096C92.3424 2.2237 93.6621 1.56052 95.2148 1.09239C96.7674 0.624254 98.3976 0.429199 100.106 0.429199C100.959 0.429199 101.852 0.46821 102.706 0.585243C103.599 0.702276 104.414 0.85832 105.229 1.01436C106.006 1.20942 106.743 1.40447 107.442 1.63854C108.14 1.87261 108.684 2.10667 109.072 2.34074C109.615 2.65283 110.004 2.96491 110.236 3.31601C110.469 3.6281 110.586 4.05722 110.586 4.60337V6.43689C110.586 7.25612 110.275 7.68524 109.693 7.68524C109.383 7.68524 108.878 7.5292 108.218 7.21711C106.006 6.20283 103.521 5.69568 100.765 5.69568C98.5529 5.69568 96.8062 6.04678 95.6029 6.78799C94.3996 7.5292 93.7786 8.66052 93.7786 10.26C93.7786 11.3523 94.1667 12.2885 94.943 13.0297C95.7194 13.771 97.1555 14.5122 99.2128 15.1754L104.725 16.9308C107.519 17.8281 109.538 19.0765 110.741 20.6759C111.944 22.2754 112.527 24.1089 112.527 26.1374C112.527 27.8149 112.177 29.3363 111.517 30.6627C110.819 31.9891 109.887 33.1594 108.684 34.0957C107.481 35.071 106.044 35.7732 104.375 36.2803C102.629 36.8265 100.804 37.0995 98.8246 37.0995Z" fill="#252F3E"/>
<path fill-rule="evenodd" clip-rule="evenodd" d="M106.16 56.0589C93.3898 65.5386 74.8359 70.571 58.8826 70.571C36.5247 70.571 16.3793 62.2617 1.16352 48.4518C-0.0397722 47.3595 1.04707 45.8771 2.48325 46.7353C18.9411 56.332 39.2418 62.1447 60.2411 62.1447C74.4089 62.1447 89.974 59.1798 104.297 53.0941C106.432 52.1188 108.256 54.4985 106.16 56.0589Z" fill="#FF9900"/>
<path fill-rule="evenodd" clip-rule="evenodd" d="M111.478 49.9731C109.848 47.8665 100.687 48.9588 96.5337 49.466C95.2916 49.622 95.0975 48.5297 96.2232 47.7105C103.521 42.561 115.515 44.0435 116.912 45.7599C118.309 47.5154 116.524 59.5698 109.692 65.3435C108.644 66.2407 107.635 65.7726 108.101 64.6023C109.653 60.7402 113.108 52.0407 111.478 49.9731Z" fill="#FF9900"/>
</g>
<defs>
<clipPath id="clip0_114_1600">
<rect width="118" height="71" fill="white"/>
</clipPath>
</defs>
</svg>
