<svg width="269" height="42" viewBox="0 0 269 42" fill="none" xmlns="http://www.w3.org/2000/svg">
<path d="M32.4739 11.115H33.9601L38.1957 6.83995L38.4038 5.02495C35.9774 2.86338 33.045 1.36182 29.8837 0.662098C26.7224 -0.0376217 23.4366 0.0876043 20.3366 1.02595C17.2366 1.96429 14.4248 3.68477 12.1667 6.02487C9.90872 8.36496 8.27904 11.2474 7.43164 14.4C7.90351 14.2047 8.42622 14.1731 8.91783 14.3099L17.3891 12.9C17.3891 12.9 17.8201 12.1799 18.043 12.2249C19.8581 10.2129 22.3666 8.9773 25.0549 8.77094C27.7431 8.56459 30.4079 9.40315 32.5036 11.115H32.4739Z" fill="#EA4335"/>
<path d="M44.2296 14.4C43.256 10.7815 41.2571 7.52845 38.478 5.04004L32.5333 11.04C33.7722 12.0618 34.7651 13.3541 35.4371 14.8196C36.109 16.2851 36.4424 17.8855 36.4122 19.5V20.565C37.107 20.565 37.795 20.7032 38.437 20.9715C39.0789 21.2399 39.6621 21.6332 40.1534 22.1291C40.6447 22.625 41.0344 23.2136 41.3003 23.8615C41.5662 24.5094 41.7031 25.2038 41.7031 25.905C41.7031 26.6063 41.5662 27.3007 41.3003 27.9486C41.0344 28.5964 40.6447 29.1851 40.1534 29.681C39.6621 30.1769 39.0789 30.5702 38.437 30.8386C37.795 31.1069 37.107 31.245 36.4122 31.245H25.8306L24.7754 32.325V38.73L25.8306 39.795H36.4122C39.3671 39.8183 42.251 38.8809 44.6371 37.1217C47.0233 35.3625 48.785 32.8748 49.6618 30.0266C50.5385 27.1785 50.4837 24.1212 49.5054 21.3069C48.5271 18.4927 46.6773 16.071 44.2296 14.4Z" fill="#4285F4"/>
<path d="M15.2336 39.7351H25.8152V31.1851H15.2336C14.4797 31.1849 13.7346 31.0212 13.0489 30.7051L11.5627 31.1701L7.29733 35.4451L6.92578 36.9451C9.3177 38.768 12.2363 39.7482 15.2336 39.7351Z" fill="#34A853"/>
<path d="M15.2326 12.0001C12.3655 12.0174 9.57532 12.938 7.25179 14.6335C4.92825 16.3289 3.1874 18.7145 2.27238 21.457C1.35735 24.1995 1.31386 27.162 2.14796 29.9306C2.98206 32.6993 4.6521 35.1359 6.92484 36.9001L13.0628 30.7051C12.2828 30.3494 11.5999 29.808 11.0728 29.1274C10.5457 28.4468 10.19 27.6473 10.0363 26.7975C9.88264 25.9476 9.93553 25.0729 10.1905 24.2482C10.4454 23.4235 10.8948 22.6736 11.5 22.0628C12.1052 21.4519 12.8482 20.9984 13.6653 20.7411C14.4824 20.4838 15.3491 20.4304 16.1911 20.5855C17.0331 20.7406 17.8253 21.0996 18.4996 21.6316C19.174 22.1636 19.7103 22.8528 20.0627 23.6401L26.2007 17.4451C24.9124 15.7452 23.252 14.3692 21.3492 13.4246C19.4465 12.48 17.3531 11.9925 15.2326 12.0001Z" fill="#FBBC05"/>
<path d="M78.4559 33.765C76.6341 33.7884 74.8263 33.4404 73.1408 32.7419C71.4553 32.0435 69.9269 31.0088 68.6471 29.7C67.3269 28.4467 66.2793 26.9301 65.5706 25.2465C64.8619 23.5629 64.5077 21.749 64.5303 19.92C64.5086 18.091 64.8632 16.2774 65.5718 14.5939C66.2805 12.9105 67.3276 11.3938 68.6471 10.14C69.9206 8.81756 71.4463 7.76903 73.132 7.05753C74.8177 6.34603 76.6287 5.98628 78.4559 5.99996C80.1969 5.97654 81.9251 6.30263 83.5401 6.95928C85.1552 7.61592 86.6247 8.59002 87.8635 9.82496L85.2181 12.54C83.4064 10.7729 80.975 9.80207 78.4559 9.83996C77.1491 9.82376 75.8533 10.0821 74.6508 10.5986C73.4483 11.115 72.3653 11.8783 71.4708 12.84C70.5412 13.7708 69.8078 14.882 69.3148 16.1064C68.8219 17.3309 68.5796 18.6435 68.6025 19.965C68.5916 21.2714 68.8397 22.5668 69.3323 23.775C69.8249 24.9832 70.552 26.0797 71.4708 27C73.3113 28.8511 75.7949 29.9042 78.393 29.935C80.9911 29.9658 83.4985 28.9719 85.3815 27.165C86.5473 25.8764 87.2625 24.2378 87.4176 22.5H78.5005V18.66H91.1182C91.2422 19.4333 91.292 20.2169 91.2668 21C91.3453 22.6206 91.0973 24.2404 90.5379 25.7615C89.9785 27.2827 89.1192 28.6735 88.0121 29.85C86.7811 31.1435 85.2939 32.1607 83.6473 32.8352C82.0008 33.5098 80.2319 33.8266 78.4559 33.765ZM107.793 31.215C106.1 32.8532 103.845 33.7679 101.499 33.7679C99.1536 33.7679 96.8986 32.8532 95.2052 31.215C94.3624 30.3902 93.6986 29.3976 93.256 28.3001C92.8134 27.2027 92.6016 26.0244 92.6341 24.84C92.6026 23.6557 92.8147 22.4776 93.2573 21.3803C93.6999 20.283 94.3631 19.2903 95.2052 18.465C96.9003 16.8301 99.1547 15.9178 101.499 15.9178C103.844 15.9178 106.098 16.8301 107.793 18.465C108.635 19.2903 109.299 20.283 109.741 21.3803C110.184 22.4776 110.396 23.6557 110.364 24.84C110.395 26.0255 110.181 27.2044 109.736 28.3019C109.29 29.3994 108.624 30.3915 107.778 31.215H107.793ZM97.9844 28.71C98.4348 29.1954 98.9792 29.5824 99.5838 29.847C100.188 30.1116 100.84 30.2481 101.499 30.2481C102.158 30.2481 102.81 30.1116 103.415 29.847C104.019 29.5824 104.564 29.1954 105.014 28.71C105.505 28.1977 105.89 27.5913 106.145 26.9267C106.4 26.262 106.521 25.5525 106.5 24.84C106.522 24.125 106.402 23.4129 106.147 22.7457C105.891 22.0784 105.506 21.4695 105.014 20.955C104.558 20.4745 104.01 20.0921 103.403 19.8309C102.797 19.5697 102.144 19.435 101.484 19.435C100.825 19.435 100.172 19.5697 99.5656 19.8309C98.959 20.0921 98.4111 20.4745 97.9547 20.955C97.4625 21.4695 97.0773 22.0784 96.8221 22.7457C96.5668 23.4129 96.4466 24.125 96.4685 24.84C96.4497 25.5535 96.5729 26.2637 96.8307 26.9284C97.0885 27.5931 97.4758 28.1989 97.9695 28.71H97.9844ZM127.143 31.215C125.45 32.8532 123.195 33.7679 120.849 33.7679C118.504 33.7679 116.249 32.8532 114.555 31.215C113.713 30.3902 113.049 29.3976 112.606 28.3001C112.164 27.2027 111.952 26.0244 111.984 24.84C111.953 23.6557 112.165 22.4776 112.607 21.3803C113.05 20.283 113.713 19.2903 114.555 18.465C116.249 16.8267 118.504 15.912 120.849 15.912C123.195 15.912 125.45 16.8267 127.143 18.465C127.986 19.2903 128.649 20.283 129.091 21.3803C129.534 22.4776 129.746 23.6557 129.715 24.84C129.747 26.0244 129.535 27.2027 129.093 28.3001C128.65 29.3976 127.986 30.3902 127.143 31.215ZM117.335 28.71C117.785 29.1954 118.329 29.5824 118.934 29.847C119.538 30.1116 120.19 30.2481 120.849 30.2481C121.508 30.2481 122.16 30.1116 122.765 29.847C123.369 29.5824 123.914 29.1954 124.364 28.71C124.855 28.1977 125.24 27.5913 125.495 26.9267C125.75 26.262 125.871 25.5525 125.85 24.84C125.872 24.125 125.752 23.4129 125.497 22.7457C125.242 22.0784 124.856 21.4695 124.364 20.955C123.908 20.4745 123.36 20.0921 122.753 19.8309C122.147 19.5697 121.494 19.435 120.835 19.435C120.175 19.435 119.522 19.5697 118.916 19.8309C118.309 20.0921 117.761 20.4745 117.305 20.955C116.813 21.4695 116.427 22.0784 116.172 22.7457C115.917 23.4129 115.797 24.125 115.819 24.84C115.8 25.5535 115.923 26.2637 116.181 26.9284C116.439 27.5931 116.826 28.1989 117.32 28.71H117.335ZM139.865 41.775C138.084 41.8321 136.337 41.2709 134.916 40.185C133.655 39.2278 132.661 37.9563 132.033 36.495L135.421 35.07C135.79 35.9432 136.367 36.711 137.101 37.305C137.886 37.9439 138.872 38.279 139.88 38.25C140.519 38.2892 141.16 38.1889 141.757 37.956C142.355 37.723 142.896 37.3628 143.343 36.9C144.238 35.8099 144.68 34.412 144.576 33V31.71H144.443C143.876 32.3889 143.161 32.9253 142.354 33.2768C141.546 33.6283 140.669 33.7852 139.791 33.735C138.675 33.7384 137.571 33.5082 136.547 33.0589C135.524 32.6097 134.604 31.9512 133.846 31.125C133.023 30.3053 132.374 29.3257 131.937 28.2454C131.5 27.1651 131.285 26.0066 131.305 24.84C131.284 23.6665 131.499 22.5009 131.935 21.4132C132.372 20.3255 133.022 19.338 133.846 18.51C134.603 17.6803 135.522 17.0185 136.545 16.5666C137.568 16.1147 138.674 15.8826 139.791 15.885C140.736 15.8833 141.67 16.0933 142.525 16.5C143.265 16.8261 143.925 17.3126 144.458 17.925H144.591V16.5H148.277V32.475C148.374 33.7387 148.215 35.0091 147.808 36.2084C147.402 37.4077 146.757 38.5108 145.914 39.45C145.111 40.2256 144.162 40.8309 143.123 41.2303C142.084 41.6296 140.976 41.8148 139.865 41.775ZM140.133 30.255C140.767 30.269 141.397 30.1419 141.978 29.8827C142.558 29.6235 143.075 29.2384 143.491 28.755C144.408 27.6944 144.892 26.3217 144.844 24.915C144.899 23.4844 144.416 22.0858 143.491 21C143.076 20.5157 142.559 20.1301 141.978 19.8708C141.398 19.6115 140.767 19.4848 140.133 19.5C139.481 19.4864 138.833 19.6132 138.234 19.8719C137.634 20.1305 137.096 20.5151 136.655 21C135.672 22.0468 135.138 23.4429 135.169 24.885C135.154 25.5923 135.277 26.2956 135.532 26.9546C135.787 27.6136 136.169 28.2153 136.655 28.725C137.094 29.2145 137.631 29.6042 138.231 29.868C138.83 30.1318 139.479 30.2637 140.133 30.255ZM154.831 7.00496V33.225H150.952V7.00496H154.831ZM165.472 33.765C164.311 33.7951 163.155 33.5828 162.079 33.1415C161.002 32.7001 160.027 32.0391 159.215 31.2C158.392 30.3669 157.744 29.3736 157.312 28.2803C156.881 27.187 156.674 26.0165 156.704 24.84C156.66 23.6605 156.852 22.4842 157.268 21.3812C157.684 20.2782 158.316 19.2711 159.126 18.42C159.89 17.6077 160.813 16.9652 161.836 16.5339C162.86 16.1025 163.962 15.8917 165.071 15.915C166.091 15.9041 167.102 16.1031 168.043 16.5C168.891 16.8453 169.664 17.3549 170.317 18C170.878 18.5468 171.377 19.1556 171.803 19.815C172.148 20.3716 172.442 20.9591 172.68 21.57L173.081 22.59L161.192 27.525C161.552 28.3588 162.153 29.0631 162.917 29.5451C163.681 30.0271 164.572 30.2641 165.472 30.225C166.348 30.2274 167.21 30.0006 167.973 29.5669C168.736 29.1331 169.375 28.5071 169.827 27.75L172.799 29.775C172.041 30.8703 171.07 31.799 169.946 32.505C168.609 33.3575 167.053 33.7956 165.472 33.765ZM160.508 24.57L168.415 21.255C168.171 20.6704 167.736 20.1884 167.181 19.89C166.561 19.5362 165.858 19.355 165.145 19.365C163.936 19.3966 162.787 19.9087 161.95 20.79C161.449 21.274 161.06 21.8639 160.81 22.5173C160.561 23.1707 160.458 23.8716 160.508 24.57Z" fill="#5F6368"/>
<path d="M193.397 33.7649C191.747 33.7937 190.109 33.4857 188.58 32.8594C187.051 32.2332 185.664 31.3016 184.501 30.1206C183.337 28.9396 182.423 27.5335 181.811 25.9869C181.2 24.4402 180.904 22.7847 180.943 21.1199C180.904 19.4552 181.2 17.7997 181.811 16.253C182.423 14.7063 183.337 13.3003 184.501 12.1193C185.664 10.9383 187.051 10.0067 188.58 9.38046C190.109 8.75421 191.747 8.44621 193.397 8.47495C195.067 8.42226 196.727 8.75106 198.253 9.43678C199.779 10.1225 201.132 11.1474 202.21 12.4349L200.07 14.5349C199.278 13.5298 198.263 12.7274 197.106 12.1931C195.949 11.6588 194.683 11.4076 193.412 11.4599C192.188 11.4321 190.971 11.6543 189.835 12.1131C188.698 12.572 187.665 13.258 186.798 14.1299C185.897 15.045 185.192 16.1383 184.729 17.3412C184.267 18.5441 184.055 19.8306 184.108 21.1199C184.055 22.4093 184.267 23.6958 184.729 24.8987C185.192 26.1016 185.897 27.1949 186.798 28.1099C187.665 28.9819 188.698 29.6679 189.835 30.1268C190.971 30.5856 192.188 30.8078 193.412 30.7799C194.832 30.796 196.238 30.4888 197.524 29.8811C198.811 29.2734 199.945 28.3809 200.843 27.2699L202.983 29.43C201.862 30.7823 200.456 31.8639 198.866 32.5949C197.153 33.3933 195.284 33.7931 193.397 33.7649Z" fill="#5F6368"/>
<path d="M208.735 33.225H205.658V9H208.735V33.225Z" fill="#5F6368"/>
<path d="M213.759 18.6449C215.371 17.0291 217.551 16.1223 219.823 16.1223C222.094 16.1223 224.274 17.0291 225.886 18.6449C226.674 19.485 227.29 20.4741 227.698 21.5553C228.107 22.6365 228.299 23.7885 228.264 24.9449C228.299 26.1014 228.107 27.2534 227.698 28.3346C227.29 29.4158 226.674 30.4049 225.886 31.2449C224.274 32.8608 222.094 33.7676 219.823 33.7676C217.551 33.7676 215.371 32.8608 213.759 31.2449C212.971 30.4049 212.355 29.4158 211.947 28.3346C211.538 27.2534 211.346 26.1014 211.381 24.9449C211.346 23.7885 211.538 22.6365 211.947 21.5553C212.355 20.4741 212.971 19.485 213.759 18.6449ZM216.048 29.2949C216.532 29.812 217.116 30.2238 217.764 30.5052C218.412 30.7867 219.11 30.9319 219.815 30.9319C220.52 30.9319 221.218 30.7867 221.866 30.5052C222.514 30.2238 223.098 29.812 223.583 29.2949C224.12 28.7126 224.538 28.0281 224.811 27.2812C225.084 26.5344 225.207 25.7402 225.173 24.9449C225.207 24.1496 225.084 23.3555 224.811 22.6086C224.538 21.8618 224.12 21.1773 223.583 20.5949C223.098 20.0779 222.514 19.6661 221.866 19.3846C221.218 19.1032 220.52 18.958 219.815 18.958C219.11 18.958 218.412 19.1032 217.764 19.3846C217.116 19.6661 216.532 20.0779 216.048 20.5949C215.51 21.1773 215.092 21.8618 214.819 22.6086C214.546 23.3555 214.423 24.1496 214.457 24.9449C214.427 25.7388 214.554 26.5308 214.829 27.2749C215.105 28.0191 215.524 28.7006 216.062 29.2799L216.048 29.2949Z" fill="#5F6368"/>
<path d="M245.31 33.225H242.338V30.93H242.249C241.72 31.8017 240.971 32.516 240.079 33C239.153 33.5415 238.102 33.8261 237.032 33.825C236.163 33.885 235.293 33.7462 234.485 33.4189C233.676 33.0917 232.952 32.5844 232.365 31.935C231.24 30.4978 230.674 28.6944 230.775 26.865V16.665H233.852V26.295C233.852 29.385 235.204 30.93 237.909 30.93C238.51 30.949 239.107 30.8227 239.65 30.5618C240.192 30.3009 240.666 29.9129 241.03 29.43C241.827 28.4101 242.252 27.1441 242.234 25.845V16.665H245.31V33.225Z" fill="#5F6368"/>
<path d="M255.759 33.765C254.715 33.7685 253.683 33.5437 252.734 33.1061C251.785 32.6685 250.941 32.0284 250.26 31.23C248.719 29.5124 247.894 27.2612 247.956 24.945C247.894 22.6288 248.719 20.3776 250.26 18.66C250.941 17.8616 251.785 17.2215 252.734 16.7839C253.683 16.3463 254.715 16.1215 255.759 16.125C256.928 16.1064 258.083 16.3849 259.118 16.935C260.027 17.3967 260.797 18.096 261.347 18.96H261.481L261.347 16.665V9H264.423V33.225H261.451V30.93H261.317C260.767 31.794 259.997 32.4933 259.088 32.955C258.062 33.5002 256.918 33.7786 255.759 33.765ZM256.264 30.93C256.96 30.9402 257.649 30.8011 258.287 30.5218C258.925 30.2425 259.497 29.8294 259.965 29.31C261.01 28.109 261.544 26.5407 261.451 24.945C261.544 23.3493 261.01 21.781 259.965 20.58C259.494 20.0578 258.92 19.6406 258.281 19.3551C257.641 19.0696 256.949 18.9221 256.249 18.9221C255.55 18.9221 254.858 19.0696 254.218 19.3551C253.578 19.6406 253.005 20.0578 252.534 20.58C252.015 21.1707 251.616 21.859 251.361 22.6055C251.106 23.352 251 24.1419 251.048 24.93C251 25.7181 251.106 26.508 251.361 27.2545C251.616 28.001 252.015 28.6893 252.534 29.28C253.002 29.8087 253.578 30.2296 254.221 30.5143C254.865 30.799 255.562 30.9407 256.264 30.93Z" fill="#5F6368"/>
</svg>
