<svg width="59" height="58" viewBox="0 0 59 58" fill="none" xmlns="http://www.w3.org/2000/svg">
<circle cx="29.334" cy="29" r="29" fill="url(#paint0_radial_2124_12)" fill-opacity="0.6"/>
<path d="M34.5516 24.824C34.5516 25.592 34.3996 26.264 34.0956 26.84C33.8076 27.4 33.3916 27.856 32.8476 28.208C32.3036 28.56 31.6796 28.816 30.9756 28.976V29.072C32.3516 29.232 33.3756 29.664 34.0476 30.368C34.7356 31.056 35.0796 31.968 35.0796 33.104C35.0796 34.096 34.8396 34.984 34.3596 35.768C33.8956 36.536 33.1676 37.144 32.1756 37.592C31.1996 38.024 29.9436 38.24 28.4076 38.24C27.4956 38.24 26.6476 38.168 25.8636 38.024C25.0796 37.88 24.3356 37.64 23.6316 37.304V35C24.3516 35.368 25.1196 35.648 25.9356 35.84C26.7676 36.032 27.5596 36.128 28.3116 36.128C29.7676 36.128 30.8156 35.856 31.4556 35.312C32.0956 34.752 32.4156 33.976 32.4156 32.984C32.4156 32.344 32.2476 31.824 31.9116 31.424C31.5756 31.008 31.0636 30.704 30.3756 30.512C29.6876 30.304 28.8316 30.2 27.8076 30.2H26.2476V28.112H27.8316C28.8076 28.112 29.5996 27.992 30.2076 27.752C30.8156 27.496 31.2636 27.144 31.5516 26.696C31.8396 26.248 31.9836 25.736 31.9836 25.16C31.9836 24.392 31.7276 23.8 31.2156 23.384C30.7196 22.952 29.9996 22.736 29.0556 22.736C28.4796 22.736 27.9436 22.8 27.4476 22.928C26.9676 23.056 26.5276 23.224 26.1276 23.432C25.7276 23.64 25.3356 23.872 24.9516 24.128L23.7036 22.376C24.1356 22.056 24.6156 21.76 25.1436 21.488C25.6876 21.216 26.2876 21.008 26.9436 20.864C27.6156 20.704 28.3436 20.624 29.1276 20.624C30.9036 20.624 32.2476 21.016 33.1596 21.8C34.0876 22.568 34.5516 23.576 34.5516 24.824Z" fill="#1A1365"/>
<defs>
<radialGradient id="paint0_radial_2124_12" cx="0" cy="0" r="1" gradientUnits="userSpaceOnUse" gradientTransform="translate(9.33399 11.5) rotate(43.9191) scale(56.225)">
<stop stop-color="#FFA642" stop-opacity="0.88"/>
<stop offset="0.416" stop-color="#FF8096" stop-opacity="0.37"/>
<stop offset="1" stop-color="#FFE7BA" stop-opacity="0"/>
<stop offset="1" stop-color="#FFE7BA" stop-opacity="0.36"/>
</radialGradient>
</defs>
</svg>
