<svg width="59" height="58" viewBox="0 0 59 58" fill="none" xmlns="http://www.w3.org/2000/svg">
<circle cx="29.666" cy="29" r="29" fill="url(#paint0_radial_2124_7)" fill-opacity="0.6"/>
<path d="M35.5556 38H24.0356V36.032L28.4516 31.544C29.3156 30.664 30.0356 29.904 30.6116 29.264C31.1876 28.608 31.6196 27.984 31.9076 27.392C32.1956 26.784 32.3396 26.128 32.3396 25.424C32.3396 24.544 32.0836 23.888 31.5716 23.456C31.0596 23.008 30.3956 22.784 29.5796 22.784C28.7956 22.784 28.0916 22.936 27.4676 23.24C26.8436 23.528 26.1956 23.936 25.5236 24.464L24.1556 22.76C24.6196 22.36 25.1156 22 25.6436 21.68C26.1876 21.36 26.7876 21.104 27.4436 20.912C28.1156 20.72 28.8516 20.624 29.6516 20.624C30.7396 20.624 31.6756 20.816 32.4596 21.2C33.2436 21.568 33.8436 22.096 34.2596 22.784C34.6916 23.472 34.9076 24.28 34.9076 25.208C34.9076 25.896 34.8036 26.544 34.5956 27.152C34.3876 27.744 34.0836 28.328 33.6836 28.904C33.2996 29.48 32.8276 30.064 32.2676 30.656C31.7076 31.248 31.0916 31.872 30.4196 32.528L27.2276 35.624V35.744H35.5556V38Z" fill="#1A1365"/>
<defs>
<radialGradient id="paint0_radial_2124_7" cx="0" cy="0" r="1" gradientUnits="userSpaceOnUse" gradientTransform="translate(9.66602 11.5) rotate(43.9191) scale(56.225)">
<stop stop-color="#FFA642" stop-opacity="0.88"/>
<stop offset="0.416" stop-color="#FF8096" stop-opacity="0.37"/>
<stop offset="1" stop-color="#FFE7BA" stop-opacity="0"/>
<stop offset="1" stop-color="#FFE7BA" stop-opacity="0.36"/>
</radialGradient>
</defs>
</svg>
